<mxfile host="Electron" modified="2023-10-18T12:03:28.049Z" agent="Mozilla/5.0 (Windows NT 10.0; Win64; x64) AppleWebKit/537.36 (KHTML, like Gecko) draw.io/21.6.8 Chrome/114.0.5735.289 Electron/25.5.0 Safari/537.36" etag="lDFRHdRobjie-_J_MbK2" version="21.6.8" type="device">
  <diagram name="Page-1" id="OrXobsIGhThwdakzCwst">
    <mxGraphModel dx="863" dy="512" grid="1" gridSize="10" guides="1" tooltips="1" connect="1" arrows="1" fold="1" page="1" pageScale="1" pageWidth="850" pageHeight="1100" math="0" shadow="0">
      <root>
        <mxCell id="0" />
        <mxCell id="1" parent="0" />
        <mxCell id="jQR3gm3J1uaSsovXdgfn-1" value="User/System" style="rounded=0;whiteSpace=wrap;html=1;fontFamily=Computer Modern;shadow=1;" vertex="1" parent="1">
          <mxGeometry x="70" y="170" width="90" height="30" as="geometry" />
        </mxCell>
        <mxCell id="jQR3gm3J1uaSsovXdgfn-5" value="FIQ" style="rounded=0;whiteSpace=wrap;html=1;fontFamily=Computer Modern;shadow=1;" vertex="1" parent="1">
          <mxGeometry x="70" y="200" width="90" height="30" as="geometry" />
        </mxCell>
        <mxCell id="jQR3gm3J1uaSsovXdgfn-7" value="PC" style="rounded=0;whiteSpace=wrap;html=1;fontFamily=Computer Modern;shadow=1;" vertex="1" parent="1">
          <mxGeometry x="190" y="170" width="40" height="30" as="geometry" />
        </mxCell>
        <mxCell id="jQR3gm3J1uaSsovXdgfn-10" value="LR" style="rounded=0;whiteSpace=wrap;html=1;fontFamily=Computer Modern;shadow=1;" vertex="1" parent="1">
          <mxGeometry x="230" y="170" width="40" height="30" as="geometry" />
        </mxCell>
        <mxCell id="jQR3gm3J1uaSsovXdgfn-11" value="SP" style="rounded=0;whiteSpace=wrap;html=1;fontFamily=Computer Modern;shadow=1;" vertex="1" parent="1">
          <mxGeometry x="270" y="170" width="40" height="30" as="geometry" />
        </mxCell>
        <mxCell id="jQR3gm3J1uaSsovXdgfn-12" value="r12" style="rounded=0;whiteSpace=wrap;html=1;fontFamily=Computer Modern;shadow=1;" vertex="1" parent="1">
          <mxGeometry x="310" y="170" width="40" height="30" as="geometry" />
        </mxCell>
        <mxCell id="jQR3gm3J1uaSsovXdgfn-13" value="r11" style="rounded=0;whiteSpace=wrap;html=1;fontFamily=Computer Modern;shadow=1;" vertex="1" parent="1">
          <mxGeometry x="350" y="170" width="40" height="30" as="geometry" />
        </mxCell>
        <mxCell id="jQR3gm3J1uaSsovXdgfn-14" value="r10" style="rounded=0;whiteSpace=wrap;html=1;fontFamily=Computer Modern;shadow=1;" vertex="1" parent="1">
          <mxGeometry x="390" y="170" width="40" height="30" as="geometry" />
        </mxCell>
        <mxCell id="jQR3gm3J1uaSsovXdgfn-15" value="r9" style="rounded=0;whiteSpace=wrap;html=1;fontFamily=Computer Modern;shadow=1;" vertex="1" parent="1">
          <mxGeometry x="430" y="170" width="40" height="30" as="geometry" />
        </mxCell>
        <mxCell id="jQR3gm3J1uaSsovXdgfn-18" value="r1" style="rounded=0;whiteSpace=wrap;html=1;fontFamily=Computer Modern;shadow=1;" vertex="1" parent="1">
          <mxGeometry x="550" y="170" width="40" height="30" as="geometry" />
        </mxCell>
        <mxCell id="jQR3gm3J1uaSsovXdgfn-19" value="r0" style="rounded=0;whiteSpace=wrap;html=1;fontFamily=Computer Modern;shadow=1;" vertex="1" parent="1">
          <mxGeometry x="590" y="170" width="40" height="30" as="geometry" />
        </mxCell>
        <mxCell id="jQR3gm3J1uaSsovXdgfn-26" value="LR" style="rounded=0;whiteSpace=wrap;html=1;fontFamily=Computer Modern;shadow=1;" vertex="1" parent="1">
          <mxGeometry x="190" y="200" width="40" height="30" as="geometry" />
        </mxCell>
        <mxCell id="jQR3gm3J1uaSsovXdgfn-27" value="SP" style="rounded=0;whiteSpace=wrap;html=1;fontFamily=Computer Modern;shadow=1;" vertex="1" parent="1">
          <mxGeometry x="230" y="200" width="40" height="30" as="geometry" />
        </mxCell>
        <mxCell id="jQR3gm3J1uaSsovXdgfn-28" value="" style="endArrow=open;endFill=1;endSize=12;html=1;rounded=0;exitX=1;exitY=0.5;exitDx=0;exitDy=0;entryX=0;entryY=0.5;entryDx=0;entryDy=0;fontFamily=Computer Modern;" edge="1" parent="1" source="jQR3gm3J1uaSsovXdgfn-1" target="jQR3gm3J1uaSsovXdgfn-7">
          <mxGeometry width="160" relative="1" as="geometry">
            <mxPoint x="180" y="120" as="sourcePoint" />
            <mxPoint x="340" y="120" as="targetPoint" />
          </mxGeometry>
        </mxCell>
        <mxCell id="jQR3gm3J1uaSsovXdgfn-29" value="" style="endArrow=open;endFill=1;endSize=12;html=1;rounded=0;fontFamily=Computer Modern;entryX=0;entryY=0.5;entryDx=0;entryDy=0;" edge="1" parent="1">
          <mxGeometry width="160" relative="1" as="geometry">
            <mxPoint x="160" y="215" as="sourcePoint" />
            <mxPoint x="190.0000000000001" y="215" as="targetPoint" />
          </mxGeometry>
        </mxCell>
        <mxCell id="jQR3gm3J1uaSsovXdgfn-43" value="" style="endArrow=none;dashed=1;html=1;dashPattern=1 3;strokeWidth=2;rounded=0;entryX=0;entryY=0.5;entryDx=0;entryDy=0;exitX=1;exitY=0.5;exitDx=0;exitDy=0;" edge="1" parent="1" source="jQR3gm3J1uaSsovXdgfn-54" target="jQR3gm3J1uaSsovXdgfn-18">
          <mxGeometry width="50" height="50" relative="1" as="geometry">
            <mxPoint x="510" y="190" as="sourcePoint" />
            <mxPoint x="500" y="230" as="targetPoint" />
          </mxGeometry>
        </mxCell>
        <mxCell id="jQR3gm3J1uaSsovXdgfn-49" value="r12" style="rounded=0;whiteSpace=wrap;html=1;fontFamily=Computer Modern;shadow=1;" vertex="1" parent="1">
          <mxGeometry x="270" y="200" width="40" height="30" as="geometry" />
        </mxCell>
        <mxCell id="jQR3gm3J1uaSsovXdgfn-50" value="r11" style="rounded=0;whiteSpace=wrap;html=1;fontFamily=Computer Modern;shadow=1;" vertex="1" parent="1">
          <mxGeometry x="310" y="200" width="40" height="30" as="geometry" />
        </mxCell>
        <mxCell id="jQR3gm3J1uaSsovXdgfn-51" value="r10" style="rounded=0;whiteSpace=wrap;html=1;fontFamily=Computer Modern;shadow=1;" vertex="1" parent="1">
          <mxGeometry x="350" y="200" width="40" height="30" as="geometry" />
        </mxCell>
        <mxCell id="jQR3gm3J1uaSsovXdgfn-52" value="r9" style="rounded=0;whiteSpace=wrap;html=1;fontFamily=Computer Modern;shadow=1;" vertex="1" parent="1">
          <mxGeometry x="390" y="200" width="40" height="30" as="geometry" />
        </mxCell>
        <mxCell id="jQR3gm3J1uaSsovXdgfn-53" value="r8" style="rounded=0;whiteSpace=wrap;html=1;fontFamily=Computer Modern;shadow=1;" vertex="1" parent="1">
          <mxGeometry x="430" y="200" width="40" height="30" as="geometry" />
        </mxCell>
        <mxCell id="jQR3gm3J1uaSsovXdgfn-54" value="r8" style="rounded=0;whiteSpace=wrap;html=1;fontFamily=Computer Modern;shadow=1;" vertex="1" parent="1">
          <mxGeometry x="470" y="170" width="40" height="30" as="geometry" />
        </mxCell>
        <mxCell id="jQR3gm3J1uaSsovXdgfn-56" value="IRQ" style="rounded=0;whiteSpace=wrap;html=1;fontFamily=Computer Modern;shadow=1;" vertex="1" parent="1">
          <mxGeometry x="70" y="230" width="90" height="30" as="geometry" />
        </mxCell>
        <mxCell id="jQR3gm3J1uaSsovXdgfn-57" value="LR" style="rounded=0;whiteSpace=wrap;html=1;fontFamily=Computer Modern;shadow=1;" vertex="1" parent="1">
          <mxGeometry x="190" y="230" width="40" height="30" as="geometry" />
        </mxCell>
        <mxCell id="jQR3gm3J1uaSsovXdgfn-58" value="SP" style="rounded=0;whiteSpace=wrap;html=1;fontFamily=Computer Modern;shadow=1;" vertex="1" parent="1">
          <mxGeometry x="230" y="230" width="40" height="30" as="geometry" />
        </mxCell>
        <mxCell id="jQR3gm3J1uaSsovXdgfn-59" value="" style="endArrow=open;endFill=1;endSize=12;html=1;rounded=0;fontFamily=Computer Modern;entryX=0;entryY=0.5;entryDx=0;entryDy=0;" edge="1" parent="1">
          <mxGeometry width="160" relative="1" as="geometry">
            <mxPoint x="160" y="245" as="sourcePoint" />
            <mxPoint x="190.0000000000001" y="245" as="targetPoint" />
          </mxGeometry>
        </mxCell>
        <mxCell id="jQR3gm3J1uaSsovXdgfn-78" value="" style="endArrow=none;dashed=1;html=1;dashPattern=1 3;strokeWidth=2;rounded=0;entryX=0.5;entryY=1;entryDx=0;entryDy=0;" edge="1" parent="1" target="jQR3gm3J1uaSsovXdgfn-56">
          <mxGeometry width="50" height="50" relative="1" as="geometry">
            <mxPoint x="115" y="290" as="sourcePoint" />
            <mxPoint x="90" y="300" as="targetPoint" />
          </mxGeometry>
        </mxCell>
        <mxCell id="jQR3gm3J1uaSsovXdgfn-79" value="" style="shape=curlyBracket;whiteSpace=wrap;html=1;rounded=1;labelPosition=left;verticalLabelPosition=middle;align=right;verticalAlign=middle;rotation=90;" vertex="1" parent="1">
          <mxGeometry x="105" y="105" width="20" height="90" as="geometry" />
        </mxCell>
        <mxCell id="jQR3gm3J1uaSsovXdgfn-80" value="" style="shape=curlyBracket;whiteSpace=wrap;html=1;rounded=1;labelPosition=left;verticalLabelPosition=middle;align=right;verticalAlign=middle;rotation=90;" vertex="1" parent="1">
          <mxGeometry x="401.25" y="-71.25" width="20" height="442.5" as="geometry" />
        </mxCell>
        <mxCell id="jQR3gm3J1uaSsovXdgfn-81" value="CPU mode" style="text;html=1;strokeColor=none;fillColor=none;align=center;verticalAlign=middle;whiteSpace=wrap;rounded=0;fontFamily=Computer Modern;" vertex="1" parent="1">
          <mxGeometry x="82.5" y="110" width="65" height="30" as="geometry" />
        </mxCell>
        <mxCell id="jQR3gm3J1uaSsovXdgfn-83" value="Collection of bank registers" style="text;html=1;strokeColor=none;fillColor=none;align=center;verticalAlign=middle;whiteSpace=wrap;rounded=0;fontFamily=Computer Modern;" vertex="1" parent="1">
          <mxGeometry x="365.63" y="106" width="91.25" height="30" as="geometry" />
        </mxCell>
        <mxCell id="jQR3gm3J1uaSsovXdgfn-84" value="&amp;nbsp; Default set used for &lt;br&gt;&amp;nbsp; all non-bank register" style="shape=note;size=20;whiteSpace=wrap;html=1;align=left;fontFamily=Computer Modern;shadow=1;" vertex="1" parent="1">
          <mxGeometry x="143.75" y="70" width="132.5" height="40" as="geometry" />
        </mxCell>
        <mxCell id="jQR3gm3J1uaSsovXdgfn-86" value="" style="endArrow=none;dashed=1;html=1;rounded=0;entryX=0.5;entryY=1;entryDx=0;entryDy=0;entryPerimeter=0;exitX=1;exitY=0.25;exitDx=0;exitDy=0;" edge="1" parent="1" source="jQR3gm3J1uaSsovXdgfn-1" target="jQR3gm3J1uaSsovXdgfn-84">
          <mxGeometry width="50" height="50" relative="1" as="geometry">
            <mxPoint x="100" y="160" as="sourcePoint" />
            <mxPoint x="150" y="110" as="targetPoint" />
          </mxGeometry>
        </mxCell>
      </root>
    </mxGraphModel>
  </diagram>
</mxfile>
